{"title":"Sicario Day Of The Soldado 2018 Movies 720p HDRip x264 5.1 +Samp","magnet":"magnet:?xt=urn:btih:5086cfba35d433bb067f90e04dbd873c9e26dbae&dn=Sicario+Day+Of+The+Soldado+2018+Movies+720p+HDRip+x264+5.1+%2BSamp&tr=udp%3A%2F%2Ftracker.leechers-paradise.org%3A6969&tr=udp%3A%2F%2Fzer0day.ch%3A1337&tr=udp%3A%2F%2Fopen.demonii.com%3A1337&tr=udp%3A%2F%2Ftracker.coppersurfer.tk%3A6969&tr=udp%3A%2F%2Fexodus.desync.com%3A6969","uploader":"basicssom","categoryP":"video","categoryS":"hd___movies","size":"1330102973","seeders":"4","leechers":"161","description":"Sicario Day Of The Soldado 2018 Movies 720p HDRip x264 5.1 with Sample &#x263B;rDX&#x263B;\r\n\r\nSCREEN SHOTS &amp; POSTER:\r\n   <a href=\"\nhttp://iphonehosting.eu/2018/9/policy/index.html\" rel=\"nofollow\" target=\"_NEW\">\nhttp://iphonehosting.eu/2018/9/policy/index.html</a> <a href=\"\nhttp://iphonehosting.eu/2018/9/policy/1.html\" rel=\"nofollow\" target=\"_NEW\">\nhttp://iphonehosting.eu/2018/9/policy/1.html</a> <a href=\"\nhttp://iphonehosting.eu/2018/9/policy/2.html\" rel=\"nofollow\" target=\"_NEW\">\nhttp://iphonehosting.eu/2018/9/policy/2.html</a>   <a href=\"\nhttp://iphonehosting.eu/2018/9/policy/3.html\" rel=\"nofollow\" target=\"_NEW\">\nhttp://iphonehosting.eu/2018/9/policy/3.html</a>   <a href=\"\nhttp://iphonehosting.eu/2018/9/policy/4.html\" rel=\"nofollow\" target=\"_NEW\">\nhttp://iphonehosting.eu/2018/9/policy/4.html</a>   <a href=\"\nhttp://iphonehosting.eu/2018/9/policy/5.html\" rel=\"nofollow\" target=\"_NEW\">\nhttp://iphonehosting.eu/2018/9/policy/5.html</a>   <a href=\"\nhttp://iphonehosting.eu/2018/9/policy/6.html\" rel=\"nofollow\" target=\"_NEW\">\nhttp://iphonehosting.eu/2018/9/policy/6.html</a>   <a href=\"\nhttp://iphonehosting.eu/2018/9/policy/7.html\" rel=\"nofollow\" target=\"_NEW\">\nhttp://iphonehosting.eu/2018/9/policy/7.html</a>   <a href=\"\nhttp://iphonehosting.eu/2018/9/policy/8.html\" rel=\"nofollow\" target=\"_NEW\">\nhttp://iphonehosting.eu/2018/9/policy/8.html</a>   <a href=\"\nhttp://iphonehosting.eu/2018/9/policy/9.html\" rel=\"nofollow\" target=\"_NEW\">\nhttp://iphonehosting.eu/2018/9/policy/9.html</a>   <a href=\"\nhttp://iphonehosting.eu/2018/9/policy/10.html\" rel=\"nofollow\" target=\"_NEW\">\nhttp://iphonehosting.eu/2018/9/policy/10.html</a>\r\n\r\nFile size                                : 1.23 GiB\r\nDuration                                 : 2 h 2 min\r\nOverall bit rate                         : 1 435 kb/s\r\nMovie name                               : Sicario Day Of The Soldado 2018 Movies 720p HDRip x264 5.1 &#x263B;rDX&#x263B;\r\n\r\nVideo\r\nID                                       : 2\r\nFormat                                   : AVC\r\nFormat/Info                              : Advanced Video Codec\r\nFormat profile                           : High@L4.1\r\nFormat settings, CABAC                   : Yes\r\nFormat settings, ReFrames                : 4 frames\r\nCodec ID                                 : V_MPEG4/ISO/AVC\r\nDuration                                 : 2 h 2 min\r\nBit rate                                 : 1 050 kb/s\r\nWidth                                    : 1 280 pixels\r\nHeight                                   : 522 pixels\r\nDisplay aspect ratio                     : 2.40:1\r\nOriginal display aspect ratio            : 2.40:1\r\nFrame rate mode                          : Constant\r\nFrame rate                               : 23.976 (24000/1001) FPS\r\nColor space                              : YUV\r\nChroma subsampling                       : 4:2:0\r\nBit depth                                : 8 bits\r\nScan type                                : Progressive\r\nBits/(Pixel*Frame)                       : 0.066\r\nStream size                              : 895 MiB (71%)\r\nTitle                                    : &#x263B;rDX&#x263B;\r\nWriting library                          : x264\r\n\r\nAudio\r\nID                                       : 1\r\nFormat                                   : AC-3\r\nFormat/Info                              : Audio Coding 3\r\nMode extension                           : CM (complete main)\r\nFormat settings, Endianness              : Big\r\nCodec ID                                 : A_AC3\r\nDuration                                 : 2 h 2 min\r\nBit rate mode                            : Constant\r\nBit rate                                 : 384 kb/s\r\nChannel(s)                               : 6 channels\r\nChannel positions                        : Front: L C R, Side: L R, LFE\r\nSampling rate                            : 48.0 kHz\r\nFrame rate                               : 31.250 FPS (1536 spf)\r\nBit depth                                : 16 bits\r\nCompression mode                         : Lossy\r\nDelay relative to video                  : -43 ms\r\nStream size                              : 336 MiB (27%)\r\nTitle                                    : &#x263B;rDX&#x263B;\r\nDefault                                  : Yes\r\nForced                                   : No","last_updated":"2018-09-12T12:20:07.286Z","parsed":{"xt":"urn:btih:5086cfba35d433bb067f90e04dbd873c9e26dbae","dn":"Sicario Day Of The Soldado 2018 Movies 720p HDRip x264 5.1  Samp","tr":["udp://exodus.desync.com:6969","udp://open.demonii.com:1337","udp://tracker.coppersurfer.tk:6969","udp://tracker.leechers-paradise.org:6969","udp://zer0day.ch:1337"],"infoHash":"5086cfba35d433bb067f90e04dbd873c9e26dbae","infoHashBuffer":{"type":"Buffer","data":[80,134,207,186,53,212,51,187,6,127,144,224,77,189,135,60,158,38,219,174]},"name":"Sicario Day Of The Soldado 2018 Movies 720p HDRip x264 5.1  Samp","announce":["udp://exodus.desync.com:6969","udp://open.demonii.com:1337","udp://tracker.coppersurfer.tk:6969","udp://tracker.leechers-paradise.org:6969","udp://zer0day.ch:1337"],"urlList":[]}}